<svg xmlns="http://www.w3.org/2000/svg" width="512" height="512" viewBox="0 0 512 512">
  <rect width="512" height="512" fill="#1e293b"/>
  <g transform="translate(156, 128) scale(6.7)">
    <path fill="#ffffff" d="M 28.269531 1.335938 C 28.332031 1.714844 27.949219 2.265625 27.722656 2.535156 C 27.4375 2.871094 27.160156 3.097656 26.746094 3.257812 C 25.898438 3.589844 24.980469 3.699219 24.074219 3.703125 C 22.554688 3.710938 21.046875 3.5 19.535156 3.371094 C 17.710938 3.21875 15.757812 2.933594 13.941406 3.222656 C 12.398438 3.433594 11.082031 4.035156 10.117188 5.289062 C 9.179688 6.511719 8.734375 8.039062 8.386719 9.519531 C 9.019531 7.894531 10.78125 6.964844 12.507812 6.714844 C 14.300781 6.453125 16.125 6.765625 17.910156 7.089844 C 19.695312 7.410156 21.511719 7.742188 23.3125 7.507812 C 25.109375 7.273438 26.917969 6.378906 27.792969 4.789062 C 28.371094 3.742188 28.46875 2.527344 28.269531 1.335938"/>
    <path fill="#ffffff" d="M 25.308594 9.671875 C 23.804688 11.257812 21.179688 10.570312 19.261719 10.308594 C 17.34375 10.046875 15.410156 9.363281 13.472656 9.367188 C 11.535156 9.371094 9.84375 9.886719 8.492188 11.269531 C 6.699219 13.105469 6.511719 15.996094 6.988281 18.515625 C 7.464844 21.039062 8.488281 23.453125 8.726562 26.007812 C 8.800781 26.785156 8.792969 27.570312 8.71875 28.347656 C 9.507812 27.183594 9.789062 25.652344 9.753906 24.214844 C 9.707031 22.347656 9.234375 20.511719 9.167969 18.644531 C 9.101562 16.777344 9.539062 14.75 10.953125 13.53125 C 12.289062 12.375 14.210938 12.1875 15.972656 12.3125 C 17.738281 12.441406 19.65625 12.671875 21.410156 12.453125 C 23.167969 12.238281 24.832031 11.375 25.308594 9.671875"/>
  </g>
</svg>