<svg xmlns="http://www.w3.org/2000/svg" xmlns:xlink="http://www.w3.org/1999/xlink" width="40" zoomAndPan="magnify" viewBox="0 0 30 30.000001" height="40" preserveAspectRatio="xMidYMid meet" version="1.0"><defs><clipPath id="fbf77b5b49"><path d="M 0.484375 0 L 29.515625 0 L 29.515625 29.03125 L 0.484375 29.03125 Z M 0.484375 0 " clip-rule="nonzero"/></clipPath><clipPath id="89a23cf5df"><path d="M 8 1 L 29 1 L 29 10 L 8 10 Z M 8 1 " clip-rule="nonzero"/></clipPath><clipPath id="fe24866d28"><path d="M 15.601562 -5.464844 L 29.671875 2.082031 L 13.898438 31.507812 L -0.175781 23.960938 Z M 15.601562 -5.464844 " clip-rule="nonzero"/></clipPath><clipPath id="ce0433a006"><path d="M 15.601562 -5.464844 L 29.671875 2.082031 L 13.898438 31.507812 L -0.175781 23.960938 Z M 15.601562 -5.464844 " clip-rule="nonzero"/></clipPath><clipPath id="4e6690ab1d"><path d="M 15.601562 -5.464844 L 29.671875 2.082031 L 13.898438 31.507812 L -0.175781 23.960938 Z M 15.601562 -5.464844 " clip-rule="nonzero"/></clipPath><clipPath id="f6277eb864"><path d="M 6 9 L 26 9 L 26 29 L 6 29 Z M 6 9 " clip-rule="nonzero"/></clipPath><clipPath id="e33467a8f5"><path d="M 15.601562 -5.464844 L 29.671875 2.082031 L 13.898438 31.507812 L -0.175781 23.960938 Z M 15.601562 -5.464844 " clip-rule="nonzero"/></clipPath><clipPath id="1adfe831ff"><path d="M 15.601562 -5.464844 L 29.671875 2.082031 L 13.898438 31.507812 L -0.175781 23.960938 Z M 15.601562 -5.464844 " clip-rule="nonzero"/></clipPath><clipPath id="a628cb8b13"><path d="M 15.601562 -5.464844 L 29.671875 2.082031 L 13.898438 31.507812 L -0.175781 23.960938 Z M 15.601562 -5.464844 " clip-rule="nonzero"/></clipPath><clipPath id="b9582ef2fe"><path d="M 12.707031 3 L 25.503906 9.863281 L 13.902344 31.5 L 1.105469 24.636719 Z M 12.707031 3 " clip-rule="nonzero"/></clipPath></defs><g clip-path="url(#fbf77b5b49)"><path fill="#ffffff" d="M 0.484375 0 L 29.515625 0 L 29.515625 29.03125 L 0.484375 29.03125 Z M 0.484375 0 " fill-opacity="1" fill-rule="nonzero"/><path fill="#ffffff" d="M 0.484375 0 L 29.515625 0 L 29.515625 29.03125 L 0.484375 29.03125 Z M 0.484375 0 " fill-opacity="1" fill-rule="nonzero"/></g><g clip-path="url(#89a23cf5df)"><g clip-path="url(#fe24866d28)"><g clip-path="url(#ce0433a006)"><g clip-path="url(#4e6690ab1d)"><path fill="#231f20" d="M 28.414062 1.414062 C 28.480469 1.796875 28.09375 2.355469 27.863281 2.625 C 27.574219 2.964844 27.292969 3.191406 26.875 3.355469 C 26.019531 3.691406 25.089844 3.800781 24.175781 3.804688 C 22.636719 3.8125 21.113281 3.597656 19.585938 3.464844 C 17.738281 3.308594 15.761719 3.023438 13.929688 3.308594 C 12.371094 3.523438 11.039062 4.128906 10.0625 5.398438 C 9.113281 6.632812 8.667969 8.175781 8.316406 9.667969 C 8.953125 8.027344 10.738281 7.089844 12.480469 6.835938 C 14.292969 6.574219 16.136719 6.894531 17.941406 7.21875 C 19.75 7.546875 21.585938 7.878906 23.40625 7.644531 C 25.222656 7.410156 27.054688 6.507812 27.933594 4.902344 C 28.515625 3.84375 28.617188 2.617188 28.414062 1.414062 " fill-opacity="1" fill-rule="nonzero"/></g></g></g></g><g clip-path="url(#f6277eb864)"><g clip-path="url(#e33467a8f5)"><g clip-path="url(#1adfe831ff)"><g clip-path="url(#a628cb8b13)"><g clip-path="url(#b9582ef2fe)"><path fill="#231f20" d="M 25.425781 9.832031 C 23.90625 11.433594 21.253906 10.742188 19.3125 10.476562 C 17.371094 10.207031 15.417969 9.515625 13.460938 9.519531 C 11.5 9.523438 9.792969 10.039062 8.421875 11.4375 C 6.609375 13.292969 6.425781 16.210938 6.910156 18.757812 C 7.390625 21.304688 8.425781 23.746094 8.671875 26.328125 C 8.746094 27.113281 8.738281 27.90625 8.664062 28.691406 C 9.460938 27.515625 9.742188 25.96875 9.707031 24.515625 C 9.660156 22.628906 9.179688 20.777344 9.113281 18.890625 C 9.046875 17.003906 9.484375 14.957031 10.914062 13.722656 C 12.265625 12.558594 14.207031 12.367188 15.988281 12.496094 C 17.773438 12.625 19.714844 12.863281 21.488281 12.644531 C 23.261719 12.421875 24.945312 11.554688 25.425781 9.832031 " fill-opacity="1" fill-rule="nonzero"/></g></g></g></g></g></svg>